<mxfile host="app.diagrams.net" modified="2020-08-13T11:18:19.754Z" agent="5.0 (Macintosh; Intel Mac OS X 10_15_3) AppleWebKit/537.36 (KHTML, like Gecko) Chrome/84.0.4147.105 Safari/537.36" etag="J-92hQRufXVRYW_mgIDH" version="13.6.2" type="github">
  <diagram id="C5RBs43oDa-KdzZeNtuy" name="Page-1">
    <mxGraphModel dx="998" dy="591" grid="0" gridSize="10" guides="1" tooltips="1" connect="1" arrows="1" fold="1" page="0" pageScale="1" pageWidth="827" pageHeight="1169" math="0" shadow="0">
      <root>
        <mxCell id="WIyWlLk6GJQsqaUBKTNV-0" />
        <mxCell id="WIyWlLk6GJQsqaUBKTNV-1" parent="WIyWlLk6GJQsqaUBKTNV-0" />
        <mxCell id="Lmn-qATE7lyrSjTYYKFK-3" value="" style="edgeStyle=orthogonalEdgeStyle;rounded=0;orthogonalLoop=1;jettySize=auto;html=1;" parent="WIyWlLk6GJQsqaUBKTNV-1" source="WIyWlLk6GJQsqaUBKTNV-3" target="Lmn-qATE7lyrSjTYYKFK-1" edge="1">
          <mxGeometry relative="1" as="geometry" />
        </mxCell>
        <mxCell id="WIyWlLk6GJQsqaUBKTNV-3" value="&lt;font color=&quot;#ffffff&quot;&gt;实施开发人员&lt;/font&gt;" style="whiteSpace=wrap;html=1;fontSize=12;glass=0;strokeWidth=1;shadow=0;direction=west;flipH=1;fillColor=#008a00;strokeColor=#005700;fontColor=#ffffff;rounded=1;" parent="WIyWlLk6GJQsqaUBKTNV-1" vertex="1">
          <mxGeometry x="50" y="112.5" width="100" height="60" as="geometry" />
        </mxCell>
        <mxCell id="Lmn-qATE7lyrSjTYYKFK-8" value="" style="edgeStyle=orthogonalEdgeStyle;rounded=0;orthogonalLoop=1;jettySize=auto;html=1;" parent="WIyWlLk6GJQsqaUBKTNV-1" source="Lmn-qATE7lyrSjTYYKFK-1" target="Lmn-qATE7lyrSjTYYKFK-4" edge="1">
          <mxGeometry relative="1" as="geometry" />
        </mxCell>
        <mxCell id="Lmn-qATE7lyrSjTYYKFK-1" value="登录" style="whiteSpace=wrap;html=1;rounded=1;" parent="WIyWlLk6GJQsqaUBKTNV-1" vertex="1">
          <mxGeometry x="200" y="125" width="70" height="35" as="geometry" />
        </mxCell>
        <mxCell id="Lmn-qATE7lyrSjTYYKFK-11" value="" style="edgeStyle=orthogonalEdgeStyle;rounded=0;orthogonalLoop=1;jettySize=auto;html=1;" parent="WIyWlLk6GJQsqaUBKTNV-1" source="Lmn-qATE7lyrSjTYYKFK-4" target="Lmn-qATE7lyrSjTYYKFK-10" edge="1">
          <mxGeometry relative="1" as="geometry" />
        </mxCell>
        <mxCell id="Lmn-qATE7lyrSjTYYKFK-4" value="IDE" style="whiteSpace=wrap;html=1;fontSize=12;glass=0;strokeWidth=1;shadow=0;direction=west;flipH=1;fillColor=#008a00;strokeColor=#005700;fontColor=#ffffff;rounded=1;" parent="WIyWlLk6GJQsqaUBKTNV-1" vertex="1">
          <mxGeometry x="314" y="112.5" width="100" height="60" as="geometry" />
        </mxCell>
        <mxCell id="Lmn-qATE7lyrSjTYYKFK-13" value="" style="edgeStyle=orthogonalEdgeStyle;rounded=0;orthogonalLoop=1;jettySize=auto;html=1;" parent="WIyWlLk6GJQsqaUBKTNV-1" source="Lmn-qATE7lyrSjTYYKFK-10" target="Lmn-qATE7lyrSjTYYKFK-12" edge="1">
          <mxGeometry relative="1" as="geometry" />
        </mxCell>
        <mxCell id="Lmn-qATE7lyrSjTYYKFK-10" value="编辑表单" style="whiteSpace=wrap;html=1;rounded=1;" parent="WIyWlLk6GJQsqaUBKTNV-1" vertex="1">
          <mxGeometry x="470" y="125" width="70" height="35" as="geometry" />
        </mxCell>
        <mxCell id="Lmn-qATE7lyrSjTYYKFK-12" value="保存到服务器" style="whiteSpace=wrap;html=1;fontSize=12;glass=0;strokeWidth=1;shadow=0;direction=west;flipH=1;fillColor=#008a00;strokeColor=#005700;fontColor=#ffffff;rounded=1;" parent="WIyWlLk6GJQsqaUBKTNV-1" vertex="1">
          <mxGeometry x="600" y="112.5" width="100" height="60" as="geometry" />
        </mxCell>
        <mxCell id="Lmn-qATE7lyrSjTYYKFK-14" value="" style="edgeStyle=orthogonalEdgeStyle;rounded=0;orthogonalLoop=1;jettySize=auto;html=1;" parent="WIyWlLk6GJQsqaUBKTNV-1" source="Lmn-qATE7lyrSjTYYKFK-15" target="Lmn-qATE7lyrSjTYYKFK-17" edge="1">
          <mxGeometry relative="1" as="geometry" />
        </mxCell>
        <mxCell id="Lmn-qATE7lyrSjTYYKFK-15" value="&lt;font color=&quot;#ffffff&quot;&gt;实施开发人员&lt;/font&gt;" style="whiteSpace=wrap;html=1;fontSize=12;glass=0;strokeWidth=1;shadow=0;direction=west;flipH=1;fillColor=#008a00;strokeColor=#005700;fontColor=#ffffff;rounded=1;" parent="WIyWlLk6GJQsqaUBKTNV-1" vertex="1">
          <mxGeometry x="52" y="225" width="100" height="60" as="geometry" />
        </mxCell>
        <mxCell id="Lmn-qATE7lyrSjTYYKFK-16" value="" style="edgeStyle=orthogonalEdgeStyle;rounded=0;orthogonalLoop=1;jettySize=auto;html=1;" parent="WIyWlLk6GJQsqaUBKTNV-1" source="Lmn-qATE7lyrSjTYYKFK-17" target="Lmn-qATE7lyrSjTYYKFK-19" edge="1">
          <mxGeometry relative="1" as="geometry" />
        </mxCell>
        <mxCell id="Lmn-qATE7lyrSjTYYKFK-17" value="登录" style="whiteSpace=wrap;html=1;rounded=1;" parent="WIyWlLk6GJQsqaUBKTNV-1" vertex="1">
          <mxGeometry x="202" y="237.5" width="70" height="35" as="geometry" />
        </mxCell>
        <mxCell id="Lmn-qATE7lyrSjTYYKFK-18" value="" style="edgeStyle=orthogonalEdgeStyle;rounded=0;orthogonalLoop=1;jettySize=auto;html=1;" parent="WIyWlLk6GJQsqaUBKTNV-1" source="Lmn-qATE7lyrSjTYYKFK-19" target="Lmn-qATE7lyrSjTYYKFK-21" edge="1">
          <mxGeometry relative="1" as="geometry" />
        </mxCell>
        <mxCell id="Lmn-qATE7lyrSjTYYKFK-19" value="玄讯应用" style="whiteSpace=wrap;html=1;fontSize=12;glass=0;strokeWidth=1;shadow=0;direction=west;flipH=1;fillColor=#008a00;strokeColor=#005700;fontColor=#ffffff;rounded=1;" parent="WIyWlLk6GJQsqaUBKTNV-1" vertex="1">
          <mxGeometry x="316" y="225" width="100" height="60" as="geometry" />
        </mxCell>
        <mxCell id="Lmn-qATE7lyrSjTYYKFK-20" value="" style="edgeStyle=orthogonalEdgeStyle;rounded=0;orthogonalLoop=1;jettySize=auto;html=1;" parent="WIyWlLk6GJQsqaUBKTNV-1" source="Lmn-qATE7lyrSjTYYKFK-21" target="Lmn-qATE7lyrSjTYYKFK-22" edge="1">
          <mxGeometry relative="1" as="geometry" />
        </mxCell>
        <mxCell id="Lmn-qATE7lyrSjTYYKFK-21" value="连接" style="whiteSpace=wrap;html=1;rounded=1;" parent="WIyWlLk6GJQsqaUBKTNV-1" vertex="1">
          <mxGeometry x="472" y="237.5" width="70" height="35" as="geometry" />
        </mxCell>
        <mxCell id="Lmn-qATE7lyrSjTYYKFK-28" value="" style="edgeStyle=orthogonalEdgeStyle;rounded=0;orthogonalLoop=1;jettySize=auto;html=1;entryX=1;entryY=0.5;entryDx=0;entryDy=0;" parent="WIyWlLk6GJQsqaUBKTNV-1" source="Lmn-qATE7lyrSjTYYKFK-22" target="Lmn-qATE7lyrSjTYYKFK-23" edge="1">
          <mxGeometry relative="1" as="geometry">
            <mxPoint x="652" y="365" as="targetPoint" />
            <Array as="points">
              <mxPoint x="646" y="327" />
            </Array>
          </mxGeometry>
        </mxCell>
        <mxCell id="Lmn-qATE7lyrSjTYYKFK-22" value="服务器" style="whiteSpace=wrap;html=1;fontSize=12;glass=0;strokeWidth=1;shadow=0;direction=west;flipH=1;fillColor=#008a00;strokeColor=#005700;fontColor=#ffffff;rounded=1;" parent="WIyWlLk6GJQsqaUBKTNV-1" vertex="1">
          <mxGeometry x="602" y="225" width="100" height="60" as="geometry" />
        </mxCell>
        <mxCell id="Lmn-qATE7lyrSjTYYKFK-30" value="" style="edgeStyle=orthogonalEdgeStyle;rounded=0;orthogonalLoop=1;jettySize=auto;html=1;entryX=0.5;entryY=0;entryDx=0;entryDy=0;" parent="WIyWlLk6GJQsqaUBKTNV-1" source="Lmn-qATE7lyrSjTYYKFK-23" target="Lmn-qATE7lyrSjTYYKFK-19" edge="1">
          <mxGeometry relative="1" as="geometry">
            <mxPoint x="379" y="326.5" as="targetPoint" />
          </mxGeometry>
        </mxCell>
        <mxCell id="Lmn-qATE7lyrSjTYYKFK-23" value="下载表单到玄讯应用中" style="whiteSpace=wrap;html=1;rounded=1;" parent="WIyWlLk6GJQsqaUBKTNV-1" vertex="1">
          <mxGeometry x="459" y="306" width="96" height="41" as="geometry" />
        </mxCell>
        <mxCell id="Lmn-qATE7lyrSjTYYKFK-34" value="" style="edgeStyle=orthogonalEdgeStyle;rounded=0;orthogonalLoop=1;jettySize=auto;html=1;strokeColor=#000000;" parent="WIyWlLk6GJQsqaUBKTNV-1" source="Lmn-qATE7lyrSjTYYKFK-31" target="Lmn-qATE7lyrSjTYYKFK-33" edge="1">
          <mxGeometry relative="1" as="geometry" />
        </mxCell>
        <mxCell id="Lmn-qATE7lyrSjTYYKFK-31" value="&lt;font color=&quot;#ffffff&quot;&gt;玄讯应用&lt;/font&gt;" style="whiteSpace=wrap;html=1;fontSize=12;glass=0;strokeWidth=1;shadow=0;direction=west;flipH=1;fillColor=#008a00;strokeColor=#005700;fontColor=#ffffff;rounded=1;" parent="WIyWlLk6GJQsqaUBKTNV-1" vertex="1">
          <mxGeometry x="17" y="562" width="100" height="60" as="geometry" />
        </mxCell>
        <mxCell id="Lmn-qATE7lyrSjTYYKFK-36" value="" style="edgeStyle=orthogonalEdgeStyle;rounded=0;orthogonalLoop=1;jettySize=auto;html=1;strokeColor=#000000;" parent="WIyWlLk6GJQsqaUBKTNV-1" source="Lmn-qATE7lyrSjTYYKFK-33" target="Lmn-qATE7lyrSjTYYKFK-35" edge="1">
          <mxGeometry relative="1" as="geometry" />
        </mxCell>
        <mxCell id="Lmn-qATE7lyrSjTYYKFK-33" value="加载表单" style="whiteSpace=wrap;html=1;rounded=1;" parent="WIyWlLk6GJQsqaUBKTNV-1" vertex="1">
          <mxGeometry x="152" y="574.5" width="70" height="35" as="geometry" />
        </mxCell>
        <mxCell id="Lmn-qATE7lyrSjTYYKFK-38" value="" style="edgeStyle=orthogonalEdgeStyle;rounded=0;orthogonalLoop=1;jettySize=auto;html=1;strokeColor=#000000;" parent="WIyWlLk6GJQsqaUBKTNV-1" source="Lmn-qATE7lyrSjTYYKFK-35" target="Lmn-qATE7lyrSjTYYKFK-37" edge="1">
          <mxGeometry relative="1" as="geometry" />
        </mxCell>
        <mxCell id="Lmn-qATE7lyrSjTYYKFK-35" value="UI引擎" style="whiteSpace=wrap;html=1;fontSize=12;glass=0;strokeWidth=1;shadow=0;direction=west;flipH=1;fillColor=#008a00;strokeColor=#005700;fontColor=#ffffff;rounded=1;" parent="WIyWlLk6GJQsqaUBKTNV-1" vertex="1">
          <mxGeometry x="256" y="562" width="100" height="60" as="geometry" />
        </mxCell>
        <mxCell id="Lmn-qATE7lyrSjTYYKFK-83" value="" style="edgeStyle=orthogonalEdgeStyle;rounded=0;orthogonalLoop=1;jettySize=auto;html=1;strokeColor=#000000;" parent="WIyWlLk6GJQsqaUBKTNV-1" source="Lmn-qATE7lyrSjTYYKFK-37" edge="1">
          <mxGeometry relative="1" as="geometry">
            <mxPoint x="506" y="592" as="targetPoint" />
          </mxGeometry>
        </mxCell>
        <mxCell id="Lmn-qATE7lyrSjTYYKFK-37" value="解析表单" style="whiteSpace=wrap;html=1;rounded=1;" parent="WIyWlLk6GJQsqaUBKTNV-1" vertex="1">
          <mxGeometry x="387" y="574.5" width="70" height="35" as="geometry" />
        </mxCell>
        <mxCell id="Lmn-qATE7lyrSjTYYKFK-42" value="" style="edgeStyle=orthogonalEdgeStyle;rounded=0;orthogonalLoop=1;jettySize=auto;html=1;strokeColor=#000000;" parent="WIyWlLk6GJQsqaUBKTNV-1" source="Lmn-qATE7lyrSjTYYKFK-39" target="Lmn-qATE7lyrSjTYYKFK-41" edge="1">
          <mxGeometry relative="1" as="geometry" />
        </mxCell>
        <mxCell id="Lmn-qATE7lyrSjTYYKFK-50" value="" style="edgeStyle=orthogonalEdgeStyle;rounded=0;orthogonalLoop=1;jettySize=auto;html=1;strokeColor=#000000;" parent="WIyWlLk6GJQsqaUBKTNV-1" source="Lmn-qATE7lyrSjTYYKFK-39" target="Lmn-qATE7lyrSjTYYKFK-47" edge="1">
          <mxGeometry relative="1" as="geometry">
            <mxPoint x="670" y="700" as="targetPoint" />
            <Array as="points">
              <mxPoint x="670" y="653" />
              <mxPoint x="553" y="653" />
            </Array>
          </mxGeometry>
        </mxCell>
        <mxCell id="Lmn-qATE7lyrSjTYYKFK-39" value="请求数据？" style="rhombus;whiteSpace=wrap;html=1;rounded=1;" parent="WIyWlLk6GJQsqaUBKTNV-1" vertex="1">
          <mxGeometry x="636" y="568" width="84" height="52" as="geometry" />
        </mxCell>
        <mxCell id="Lmn-qATE7lyrSjTYYKFK-46" value="" style="edgeStyle=orthogonalEdgeStyle;rounded=0;orthogonalLoop=1;jettySize=auto;html=1;strokeColor=#000000;entryX=0.992;entryY=0.612;entryDx=0;entryDy=0;entryPerimeter=0;" parent="WIyWlLk6GJQsqaUBKTNV-1" source="Lmn-qATE7lyrSjTYYKFK-41" target="Lmn-qATE7lyrSjTYYKFK-44" edge="1">
          <mxGeometry relative="1" as="geometry">
            <mxPoint x="797" y="704" as="targetPoint" />
            <Array as="points">
              <mxPoint x="797" y="703" />
              <mxPoint x="740" y="703" />
            </Array>
          </mxGeometry>
        </mxCell>
        <mxCell id="Lmn-qATE7lyrSjTYYKFK-41" value="数据服务器" style="whiteSpace=wrap;html=1;fontSize=12;glass=0;strokeWidth=1;shadow=0;direction=west;flipH=1;fillColor=#008a00;strokeColor=#005700;fontColor=#ffffff;rounded=1;" parent="WIyWlLk6GJQsqaUBKTNV-1" vertex="1">
          <mxGeometry x="747" y="564" width="100" height="60" as="geometry" />
        </mxCell>
        <mxCell id="Lmn-qATE7lyrSjTYYKFK-48" value="" style="edgeStyle=orthogonalEdgeStyle;rounded=0;orthogonalLoop=1;jettySize=auto;html=1;strokeColor=#000000;" parent="WIyWlLk6GJQsqaUBKTNV-1" source="Lmn-qATE7lyrSjTYYKFK-44" target="Lmn-qATE7lyrSjTYYKFK-47" edge="1">
          <mxGeometry relative="1" as="geometry" />
        </mxCell>
        <mxCell id="Lmn-qATE7lyrSjTYYKFK-44" value="返回数据" style="whiteSpace=wrap;html=1;rounded=1;" parent="WIyWlLk6GJQsqaUBKTNV-1" vertex="1">
          <mxGeometry x="650" y="682" width="70" height="35" as="geometry" />
        </mxCell>
        <mxCell id="Lmn-qATE7lyrSjTYYKFK-94" value="" style="edgeStyle=orthogonalEdgeStyle;rounded=0;orthogonalLoop=1;jettySize=auto;html=1;strokeColor=#000000;" parent="WIyWlLk6GJQsqaUBKTNV-1" source="Lmn-qATE7lyrSjTYYKFK-47" target="Lmn-qATE7lyrSjTYYKFK-93" edge="1">
          <mxGeometry relative="1" as="geometry" />
        </mxCell>
        <mxCell id="Lmn-qATE7lyrSjTYYKFK-47" value="原生代码渲染图表" style="whiteSpace=wrap;html=1;rounded=1;" parent="WIyWlLk6GJQsqaUBKTNV-1" vertex="1">
          <mxGeometry x="521" y="682" width="70" height="35" as="geometry" />
        </mxCell>
        <mxCell id="2" value="否" style="text;html=1;align=center;verticalAlign=middle;resizable=0;points=[];autosize=1;" parent="WIyWlLk6GJQsqaUBKTNV-1" vertex="1">
          <mxGeometry x="644" y="636" width="22" height="18" as="geometry" />
        </mxCell>
        <mxCell id="Lmn-qATE7lyrSjTYYKFK-51" value="" style="edgeStyle=orthogonalEdgeStyle;rounded=0;orthogonalLoop=1;jettySize=auto;html=1;strokeColor=#000000;" parent="WIyWlLk6GJQsqaUBKTNV-1" source="Lmn-qATE7lyrSjTYYKFK-52" target="Lmn-qATE7lyrSjTYYKFK-54" edge="1">
          <mxGeometry relative="1" as="geometry" />
        </mxCell>
        <mxCell id="Lmn-qATE7lyrSjTYYKFK-52" value="&lt;font color=&quot;#ffffff&quot;&gt;玄讯应用&lt;/font&gt;" style="whiteSpace=wrap;html=1;fontSize=12;glass=0;strokeWidth=1;shadow=0;direction=west;flipH=1;fillColor=#008a00;strokeColor=#005700;fontColor=#ffffff;rounded=1;" parent="WIyWlLk6GJQsqaUBKTNV-1" vertex="1">
          <mxGeometry x="48" y="388" width="100" height="60" as="geometry" />
        </mxCell>
        <mxCell id="Lmn-qATE7lyrSjTYYKFK-53" value="" style="edgeStyle=orthogonalEdgeStyle;rounded=0;orthogonalLoop=1;jettySize=auto;html=1;strokeColor=#000000;" parent="WIyWlLk6GJQsqaUBKTNV-1" source="Lmn-qATE7lyrSjTYYKFK-54" target="Lmn-qATE7lyrSjTYYKFK-56" edge="1">
          <mxGeometry relative="1" as="geometry" />
        </mxCell>
        <mxCell id="Lmn-qATE7lyrSjTYYKFK-54" value="加载表单" style="whiteSpace=wrap;html=1;rounded=1;" parent="WIyWlLk6GJQsqaUBKTNV-1" vertex="1">
          <mxGeometry x="183" y="400.5" width="70" height="35" as="geometry" />
        </mxCell>
        <mxCell id="Lmn-qATE7lyrSjTYYKFK-55" value="" style="edgeStyle=orthogonalEdgeStyle;rounded=0;orthogonalLoop=1;jettySize=auto;html=1;strokeColor=#000000;" parent="WIyWlLk6GJQsqaUBKTNV-1" source="Lmn-qATE7lyrSjTYYKFK-56" target="Lmn-qATE7lyrSjTYYKFK-58" edge="1">
          <mxGeometry relative="1" as="geometry" />
        </mxCell>
        <mxCell id="Lmn-qATE7lyrSjTYYKFK-56" value="UI引擎" style="whiteSpace=wrap;html=1;fontSize=12;glass=0;strokeWidth=1;shadow=0;direction=west;flipH=1;fillColor=#008a00;strokeColor=#005700;fontColor=#ffffff;rounded=1;" parent="WIyWlLk6GJQsqaUBKTNV-1" vertex="1">
          <mxGeometry x="287" y="388" width="100" height="60" as="geometry" />
        </mxCell>
        <mxCell id="Lmn-qATE7lyrSjTYYKFK-57" value="" style="edgeStyle=orthogonalEdgeStyle;rounded=0;orthogonalLoop=1;jettySize=auto;html=1;strokeColor=#000000;entryX=0;entryY=0.5;entryDx=0;entryDy=0;" parent="WIyWlLk6GJQsqaUBKTNV-1" source="Lmn-qATE7lyrSjTYYKFK-58" edge="1">
          <mxGeometry relative="1" as="geometry">
            <mxPoint x="520" y="418" as="targetPoint" />
          </mxGeometry>
        </mxCell>
        <mxCell id="Lmn-qATE7lyrSjTYYKFK-58" value="解析表单" style="whiteSpace=wrap;html=1;rounded=1;" parent="WIyWlLk6GJQsqaUBKTNV-1" vertex="1">
          <mxGeometry x="418" y="400.5" width="70" height="35" as="geometry" />
        </mxCell>
        <mxCell id="Lmn-qATE7lyrSjTYYKFK-79" value="" style="edgeStyle=orthogonalEdgeStyle;rounded=0;orthogonalLoop=1;jettySize=auto;html=1;strokeColor=#000000;" parent="WIyWlLk6GJQsqaUBKTNV-1" source="Lmn-qATE7lyrSjTYYKFK-66" target="Lmn-qATE7lyrSjTYYKFK-70" edge="1">
          <mxGeometry relative="1" as="geometry">
            <mxPoint x="694" y="440" as="targetPoint" />
          </mxGeometry>
        </mxCell>
        <mxCell id="Lmn-qATE7lyrSjTYYKFK-66" value="原生代码渲染图表" style="whiteSpace=wrap;html=1;rounded=1;" parent="WIyWlLk6GJQsqaUBKTNV-1" vertex="1">
          <mxGeometry x="659" y="476" width="70" height="35" as="geometry" />
        </mxCell>
        <mxCell id="Lmn-qATE7lyrSjTYYKFK-72" value="" style="edgeStyle=orthogonalEdgeStyle;rounded=0;orthogonalLoop=1;jettySize=auto;html=1;strokeColor=#000000;" parent="WIyWlLk6GJQsqaUBKTNV-1" source="Lmn-qATE7lyrSjTYYKFK-68" target="Lmn-qATE7lyrSjTYYKFK-70" edge="1">
          <mxGeometry relative="1" as="geometry" />
        </mxCell>
        <mxCell id="Lmn-qATE7lyrSjTYYKFK-77" value="" style="edgeStyle=orthogonalEdgeStyle;rounded=0;orthogonalLoop=1;jettySize=auto;html=1;strokeColor=#000000;entryX=0;entryY=0.5;entryDx=0;entryDy=0;" parent="WIyWlLk6GJQsqaUBKTNV-1" source="Lmn-qATE7lyrSjTYYKFK-68" target="Lmn-qATE7lyrSjTYYKFK-66" edge="1">
          <mxGeometry relative="1" as="geometry">
            <mxPoint x="563" y="528" as="targetPoint" />
            <Array as="points">
              <mxPoint x="563" y="494" />
            </Array>
          </mxGeometry>
        </mxCell>
        <mxCell id="Lmn-qATE7lyrSjTYYKFK-68" value="是否有图表类型控件？" style="rhombus;whiteSpace=wrap;html=1;rounded=1;" parent="WIyWlLk6GJQsqaUBKTNV-1" vertex="1">
          <mxGeometry x="518" y="390" width="90" height="58" as="geometry" />
        </mxCell>
        <mxCell id="Lmn-qATE7lyrSjTYYKFK-70" value="结束解析" style="whiteSpace=wrap;html=1;rounded=1;" parent="WIyWlLk6GJQsqaUBKTNV-1" vertex="1">
          <mxGeometry x="659" y="401.5" width="70" height="35" as="geometry" />
        </mxCell>
        <mxCell id="Lmn-qATE7lyrSjTYYKFK-73" value="否" style="text;html=1;align=center;verticalAlign=middle;resizable=0;points=[];autosize=1;" parent="WIyWlLk6GJQsqaUBKTNV-1" vertex="1">
          <mxGeometry x="613" y="399" width="22" height="18" as="geometry" />
        </mxCell>
        <mxCell id="Lmn-qATE7lyrSjTYYKFK-91" value="" style="edgeStyle=orthogonalEdgeStyle;rounded=0;orthogonalLoop=1;jettySize=auto;html=1;strokeColor=#000000;" parent="WIyWlLk6GJQsqaUBKTNV-1" source="Lmn-qATE7lyrSjTYYKFK-88" target="Lmn-qATE7lyrSjTYYKFK-39" edge="1">
          <mxGeometry relative="1" as="geometry" />
        </mxCell>
        <mxCell id="Lmn-qATE7lyrSjTYYKFK-96" value="" style="edgeStyle=orthogonalEdgeStyle;rounded=0;orthogonalLoop=1;jettySize=auto;html=1;strokeColor=#000000;entryX=0.5;entryY=0;entryDx=0;entryDy=0;" parent="WIyWlLk6GJQsqaUBKTNV-1" source="Lmn-qATE7lyrSjTYYKFK-88" target="Lmn-qATE7lyrSjTYYKFK-93" edge="1">
          <mxGeometry relative="1" as="geometry">
            <Array as="points">
              <mxPoint x="551" y="644" />
              <mxPoint x="427" y="644" />
            </Array>
          </mxGeometry>
        </mxCell>
        <mxCell id="Lmn-qATE7lyrSjTYYKFK-88" value="是否有图表类型控件？" style="rhombus;whiteSpace=wrap;html=1;rounded=1;" parent="WIyWlLk6GJQsqaUBKTNV-1" vertex="1">
          <mxGeometry x="506" y="565" width="90" height="58" as="geometry" />
        </mxCell>
        <mxCell id="Lmn-qATE7lyrSjTYYKFK-93" value="结束解析" style="whiteSpace=wrap;html=1;rounded=1;" parent="WIyWlLk6GJQsqaUBKTNV-1" vertex="1">
          <mxGeometry x="392" y="682" width="70" height="35" as="geometry" />
        </mxCell>
        <mxCell id="Lmn-qATE7lyrSjTYYKFK-97" value="否" style="text;html=1;align=center;verticalAlign=middle;resizable=0;points=[];autosize=1;" parent="WIyWlLk6GJQsqaUBKTNV-1" vertex="1">
          <mxGeometry x="521" y="626" width="22" height="18" as="geometry" />
        </mxCell>
        <mxCell id="N59cPRVTQM_161WGmZhx-6" value="" style="edgeStyle=orthogonalEdgeStyle;rounded=0;orthogonalLoop=1;jettySize=auto;html=1;" parent="WIyWlLk6GJQsqaUBKTNV-1" source="N59cPRVTQM_161WGmZhx-7" target="N59cPRVTQM_161WGmZhx-9" edge="1">
          <mxGeometry relative="1" as="geometry" />
        </mxCell>
        <mxCell id="N59cPRVTQM_161WGmZhx-7" value="玄讯应用" style="whiteSpace=wrap;html=1;fontSize=12;glass=0;strokeWidth=1;shadow=0;direction=west;flipH=1;fillColor=#008a00;strokeColor=#005700;fontColor=#ffffff;rounded=1;" parent="WIyWlLk6GJQsqaUBKTNV-1" vertex="1">
          <mxGeometry x="17" y="861" width="100" height="60" as="geometry" />
        </mxCell>
        <mxCell id="N59cPRVTQM_161WGmZhx-17" value="" style="edgeStyle=orthogonalEdgeStyle;rounded=0;jumpStyle=none;orthogonalLoop=1;jettySize=auto;html=1;" parent="WIyWlLk6GJQsqaUBKTNV-1" source="N59cPRVTQM_161WGmZhx-9" target="N59cPRVTQM_161WGmZhx-16" edge="1">
          <mxGeometry relative="1" as="geometry" />
        </mxCell>
        <mxCell id="N59cPRVTQM_161WGmZhx-9" value="图片" style="whiteSpace=wrap;html=1;rounded=1;" parent="WIyWlLk6GJQsqaUBKTNV-1" vertex="1">
          <mxGeometry x="175" y="843" width="70" height="35" as="geometry" />
        </mxCell>
        <mxCell id="N59cPRVTQM_161WGmZhx-19" value="" style="edgeStyle=orthogonalEdgeStyle;rounded=0;jumpStyle=none;orthogonalLoop=1;jettySize=auto;html=1;entryX=0;entryY=0.75;entryDx=0;entryDy=0;" parent="WIyWlLk6GJQsqaUBKTNV-1" source="N59cPRVTQM_161WGmZhx-14" target="N59cPRVTQM_161WGmZhx-18" edge="1">
          <mxGeometry relative="1" as="geometry">
            <Array as="points">
              <mxPoint x="389" y="917" />
              <mxPoint x="389" y="897" />
            </Array>
          </mxGeometry>
        </mxCell>
        <mxCell id="N59cPRVTQM_161WGmZhx-14" value="水印" style="whiteSpace=wrap;html=1;rounded=1;" parent="WIyWlLk6GJQsqaUBKTNV-1" vertex="1">
          <mxGeometry x="175" y="899" width="70" height="35" as="geometry" />
        </mxCell>
        <mxCell id="N59cPRVTQM_161WGmZhx-15" value="" style="endArrow=classic;html=1;exitX=0;exitY=0.5;exitDx=0;exitDy=0;entryX=0;entryY=0.5;entryDx=0;entryDy=0;jumpStyle=none;rounded=0;" parent="WIyWlLk6GJQsqaUBKTNV-1" edge="1">
          <mxGeometry width="50" height="50" relative="1" as="geometry">
            <mxPoint x="116" y="891" as="sourcePoint" />
            <mxPoint x="174" y="916.5" as="targetPoint" />
            <Array as="points">
              <mxPoint x="146" y="891" />
              <mxPoint x="146" y="917" />
            </Array>
          </mxGeometry>
        </mxCell>
        <mxCell id="N59cPRVTQM_161WGmZhx-20" value="" style="edgeStyle=orthogonalEdgeStyle;rounded=0;jumpStyle=none;orthogonalLoop=1;jettySize=auto;html=1;" parent="WIyWlLk6GJQsqaUBKTNV-1" source="N59cPRVTQM_161WGmZhx-16" target="N59cPRVTQM_161WGmZhx-18" edge="1">
          <mxGeometry relative="1" as="geometry" />
        </mxCell>
        <mxCell id="N59cPRVTQM_161WGmZhx-16" value="图片解码" style="whiteSpace=wrap;html=1;rounded=1;" parent="WIyWlLk6GJQsqaUBKTNV-1" vertex="1">
          <mxGeometry x="284" y="843" width="70" height="35" as="geometry" />
        </mxCell>
        <mxCell id="N59cPRVTQM_161WGmZhx-22" value="" style="edgeStyle=orthogonalEdgeStyle;rounded=0;jumpStyle=none;orthogonalLoop=1;jettySize=auto;html=1;" parent="WIyWlLk6GJQsqaUBKTNV-1" source="N59cPRVTQM_161WGmZhx-18" target="N59cPRVTQM_161WGmZhx-21" edge="1">
          <mxGeometry relative="1" as="geometry" />
        </mxCell>
        <mxCell id="N59cPRVTQM_161WGmZhx-18" value="画布" style="whiteSpace=wrap;html=1;rounded=1;" parent="WIyWlLk6GJQsqaUBKTNV-1" vertex="1">
          <mxGeometry x="428" y="871" width="70" height="35" as="geometry" />
        </mxCell>
        <mxCell id="N59cPRVTQM_161WGmZhx-24" value="" style="edgeStyle=orthogonalEdgeStyle;rounded=0;jumpStyle=none;orthogonalLoop=1;jettySize=auto;html=1;" parent="WIyWlLk6GJQsqaUBKTNV-1" source="N59cPRVTQM_161WGmZhx-21" target="N59cPRVTQM_161WGmZhx-23" edge="1">
          <mxGeometry relative="1" as="geometry" />
        </mxCell>
        <mxCell id="N59cPRVTQM_161WGmZhx-21" value="生成图片" style="whiteSpace=wrap;html=1;rounded=1;" parent="WIyWlLk6GJQsqaUBKTNV-1" vertex="1">
          <mxGeometry x="540" y="871" width="70" height="35" as="geometry" />
        </mxCell>
        <mxCell id="N59cPRVTQM_161WGmZhx-23" value="UIImageView展示图片" style="whiteSpace=wrap;html=1;rounded=1;fillColor=#008a00;strokeColor=#005700;fontColor=#ffffff;" parent="WIyWlLk6GJQsqaUBKTNV-1" vertex="1">
          <mxGeometry x="659" y="858.25" width="136" height="60.5" as="geometry" />
        </mxCell>
        <mxCell id="N59cPRVTQM_161WGmZhx-25" value="" style="edgeStyle=orthogonalEdgeStyle;rounded=0;orthogonalLoop=1;jettySize=auto;html=1;" parent="WIyWlLk6GJQsqaUBKTNV-1" source="N59cPRVTQM_161WGmZhx-26" target="N59cPRVTQM_161WGmZhx-28" edge="1">
          <mxGeometry relative="1" as="geometry" />
        </mxCell>
        <mxCell id="N59cPRVTQM_161WGmZhx-26" value="玄讯应用" style="whiteSpace=wrap;html=1;fontSize=12;glass=0;strokeWidth=1;shadow=0;direction=west;flipH=1;fillColor=#008a00;strokeColor=#005700;fontColor=#ffffff;rounded=1;" parent="WIyWlLk6GJQsqaUBKTNV-1" vertex="1">
          <mxGeometry x="17" y="1058" width="100" height="60" as="geometry" />
        </mxCell>
        <mxCell id="N59cPRVTQM_161WGmZhx-27" value="" style="edgeStyle=orthogonalEdgeStyle;rounded=0;jumpStyle=none;orthogonalLoop=1;jettySize=auto;html=1;entryX=0;entryY=0.5;entryDx=0;entryDy=0;" parent="WIyWlLk6GJQsqaUBKTNV-1" source="N59cPRVTQM_161WGmZhx-28" target="N59cPRVTQM_161WGmZhx-39" edge="1">
          <mxGeometry relative="1" as="geometry">
            <mxPoint x="284" y="1057.5" as="targetPoint" />
          </mxGeometry>
        </mxCell>
        <mxCell id="N59cPRVTQM_161WGmZhx-28" value="图片" style="whiteSpace=wrap;html=1;rounded=1;" parent="WIyWlLk6GJQsqaUBKTNV-1" vertex="1">
          <mxGeometry x="175" y="1040" width="70" height="35" as="geometry" />
        </mxCell>
        <mxCell id="N59cPRVTQM_161WGmZhx-30" value="水印" style="whiteSpace=wrap;html=1;rounded=1;" parent="WIyWlLk6GJQsqaUBKTNV-1" vertex="1">
          <mxGeometry x="175" y="1096" width="70" height="35" as="geometry" />
        </mxCell>
        <mxCell id="N59cPRVTQM_161WGmZhx-31" value="" style="endArrow=classic;html=1;exitX=0;exitY=0.5;exitDx=0;exitDy=0;entryX=0;entryY=0.5;entryDx=0;entryDy=0;jumpStyle=none;rounded=0;" parent="WIyWlLk6GJQsqaUBKTNV-1" edge="1">
          <mxGeometry width="50" height="50" relative="1" as="geometry">
            <mxPoint x="116" y="1088" as="sourcePoint" />
            <mxPoint x="174" y="1113.5" as="targetPoint" />
            <Array as="points">
              <mxPoint x="146" y="1088" />
              <mxPoint x="146" y="1114" />
            </Array>
          </mxGeometry>
        </mxCell>
        <mxCell id="N59cPRVTQM_161WGmZhx-39" value="UImageView展示图片" style="whiteSpace=wrap;html=1;rounded=1;fillColor=#008a00;strokeColor=#005700;fontColor=#ffffff;" parent="WIyWlLk6GJQsqaUBKTNV-1" vertex="1">
          <mxGeometry x="343" y="1051" width="140" height="78" as="geometry" />
        </mxCell>
        <mxCell id="N59cPRVTQM_161WGmZhx-40" value="UILabe展示水印" style="whiteSpace=wrap;html=1;rounded=1;" parent="WIyWlLk6GJQsqaUBKTNV-1" vertex="1">
          <mxGeometry x="356" y="1103.5" width="106" height="20" as="geometry" />
        </mxCell>
        <mxCell id="N59cPRVTQM_161WGmZhx-41" value="" style="edgeStyle=orthogonalEdgeStyle;rounded=0;jumpStyle=none;orthogonalLoop=1;jettySize=auto;html=1;" parent="WIyWlLk6GJQsqaUBKTNV-1" source="N59cPRVTQM_161WGmZhx-30" target="N59cPRVTQM_161WGmZhx-40" edge="1">
          <mxGeometry relative="1" as="geometry">
            <Array as="points" />
          </mxGeometry>
        </mxCell>
        <mxCell id="eccNBczqlCl_BA9FMAcg-4" value="" style="edgeStyle=orthogonalEdgeStyle;rounded=0;orthogonalLoop=1;jettySize=auto;html=1;" edge="1" parent="WIyWlLk6GJQsqaUBKTNV-1" source="eccNBczqlCl_BA9FMAcg-2" target="eccNBczqlCl_BA9FMAcg-3">
          <mxGeometry relative="1" as="geometry" />
        </mxCell>
        <mxCell id="eccNBczqlCl_BA9FMAcg-2" value="玄讯应用" style="whiteSpace=wrap;html=1;fontSize=12;glass=0;strokeWidth=1;shadow=0;direction=west;flipH=1;fillColor=#008a00;strokeColor=#005700;fontColor=#ffffff;rounded=1;" vertex="1" parent="WIyWlLk6GJQsqaUBKTNV-1">
          <mxGeometry x="14" y="1270" width="100" height="60" as="geometry" />
        </mxCell>
        <mxCell id="eccNBczqlCl_BA9FMAcg-8" value="" style="edgeStyle=orthogonalEdgeStyle;rounded=0;orthogonalLoop=1;jettySize=auto;html=1;" edge="1" parent="WIyWlLk6GJQsqaUBKTNV-1" source="eccNBczqlCl_BA9FMAcg-3" target="eccNBczqlCl_BA9FMAcg-7">
          <mxGeometry relative="1" as="geometry" />
        </mxCell>
        <mxCell id="eccNBczqlCl_BA9FMAcg-3" value="图表数据" style="whiteSpace=wrap;html=1;rounded=1;" vertex="1" parent="WIyWlLk6GJQsqaUBKTNV-1">
          <mxGeometry x="167" y="1282.5" width="70" height="35" as="geometry" />
        </mxCell>
        <mxCell id="eccNBczqlCl_BA9FMAcg-7" value="数据预处理" style="whiteSpace=wrap;html=1;rounded=1;" vertex="1" parent="WIyWlLk6GJQsqaUBKTNV-1">
          <mxGeometry x="293" y="1282.5" width="70" height="35" as="geometry" />
        </mxCell>
        <mxCell id="eccNBczqlCl_BA9FMAcg-9" value="X,Y轴数据处理" style="whiteSpace=wrap;html=1;rounded=1;" vertex="1" parent="WIyWlLk6GJQsqaUBKTNV-1">
          <mxGeometry x="418" y="1225" width="70" height="35" as="geometry" />
        </mxCell>
        <mxCell id="eccNBczqlCl_BA9FMAcg-10" value="每个柱状图的位置计算" style="whiteSpace=wrap;html=1;rounded=1;" vertex="1" parent="WIyWlLk6GJQsqaUBKTNV-1">
          <mxGeometry x="418" y="1275" width="70" height="35" as="geometry" />
        </mxCell>
        <mxCell id="eccNBczqlCl_BA9FMAcg-11" value="图例数据预处理" style="whiteSpace=wrap;html=1;rounded=1;" vertex="1" parent="WIyWlLk6GJQsqaUBKTNV-1">
          <mxGeometry x="420" y="1325" width="70" height="35" as="geometry" />
        </mxCell>
        <mxCell id="eccNBczqlCl_BA9FMAcg-12" value="其他数据预处理" style="whiteSpace=wrap;html=1;rounded=1;" vertex="1" parent="WIyWlLk6GJQsqaUBKTNV-1">
          <mxGeometry x="420" y="1375" width="70" height="35" as="geometry" />
        </mxCell>
      </root>
    </mxGraphModel>
  </diagram>
</mxfile>
